<svg xmlns="http://www.w3.org/2000/svg" width="23" height="21.777" viewBox="0 0 23 21.777"><defs><style>.a{fill:#fff;}</style></defs><g transform="translate(0 -12.5)"><g transform="translate(0 12.5)"><g transform="translate(0 0)"><path class="a" d="M21.165,12.5H1.835A1.837,1.837,0,0,0,0,14.335V29.016a1.837,1.837,0,0,0,1.835,1.835h7.1v2.691H6.362a.367.367,0,1,0,0,.734H16.638a.367.367,0,1,0,0-.734H14.069V30.851h7.1A1.837,1.837,0,0,0,23,29.016V14.335A1.837,1.837,0,0,0,21.165,12.5Zm-7.83,21.043H9.665V30.851h3.67Zm8.931-4.527a1.1,1.1,0,0,1-1.1,1.1H1.835a1.1,1.1,0,0,1-1.1-1.1v-1.1H22.266Zm0-1.835H.734V14.335a1.1,1.1,0,0,1,1.1-1.1h19.33a1.1,1.1,0,0,1,1.1,1.1Z" transform="translate(0 -12.5)"/><path class="a" d="M49.7,42.5H30.367a.367.367,0,0,0-.367.367V54.612a.367.367,0,0,0,.367.367h15.9a.367.367,0,0,0,0-.734H30.734V43.234h18.6V54.245h-1.59a.367.367,0,1,0,0,.734H49.7a.367.367,0,0,0,.367-.367V42.867A.367.367,0,0,0,49.7,42.5Z" transform="translate(-28.532 -41.032)"/></g></g></g></svg>